<?xml version="1.0" encoding="UTF-8"?>
<svg version="1.1" xmlns="http://www.w3.org/2000/svg" width="256" height="256">
<path d="M0 0 C2.07309679 0.01611595 4.14424558 0.0000116 6.21728516 -0.01904297 C38.02819628 -0.06941821 66.21352886 13.47395276 89.57275391 34.39111328 C90.30365234 35.03693359 91.03455078 35.68275391 91.78759766 36.34814453 C113.94325142 57.14455574 126.76910593 88.62068946 127.85400391 118.67236328 C128.63395413 155.6333378 117.16374597 187.52637271 91.45166016 214.50830078 C83.15844832 222.95692204 73.86444102 229.59826002 63.57275391 235.39111328 C62.50669922 235.99826172 61.44064453 236.60541016 60.34228516 237.23095703 C42.58605751 246.74396528 23.16134153 250.82445886 3.13525391 250.76611328 C2.43198975 250.76556946 1.72872559 250.76502563 1.00415039 250.76446533 C-29.04686927 250.65793165 -56.38921185 240.79965749 -79.42724609 221.39111328 C-80.32056641 220.64990234 -81.21388672 219.90869141 -82.13427734 219.14501953 C-105.32454335 199.16078108 -119.79021727 169.61859442 -123.14599609 139.35205078 C-125.71220757 103.21123915 -116.07615011 69.85241792 -92.48974609 42.07861328 C-69.14872 15.37281809 -35.54594127 -0.32672442 0 0 Z " fill="#51AFD5" transform="translate(126.42724609375,3.60888671875)"/>
<path d="M0 0 C19.80126021 5.15048766 38.16004507 13.20680094 56.35546875 22.44140625 C57.68835081 23.10897469 59.02151967 23.77597251 60.35546875 24.44140625 C54.49604923 58.02588398 37.90049342 86.88697496 10.35546875 107.44140625 C6.13135921 110.3219562 1.81012219 112.93402787 -2.64453125 115.44140625 C-3.71058594 116.04855469 -4.77664062 116.65570313 -5.875 117.28125 C-23.63122765 126.79425825 -43.05594363 130.87475183 -63.08203125 130.81640625 C-63.78529541 130.81586243 -64.48855957 130.8153186 -65.21313477 130.8147583 C-95.26415442 130.70822462 -122.606497 120.84995045 -145.64453125 101.44140625 C-146.53785156 100.70019531 -147.43117187 99.95898438 -148.3515625 99.1953125 C-166.70322185 83.38074891 -179.06419763 61.87962582 -185.64453125 38.75390625 C-185.85247314 38.02389404 -186.06041504 37.29388184 -186.2746582 36.54174805 C-187.46023581 32.04922422 -187.83929245 28.08524358 -187.64453125 23.44140625 C-173.01404414 15.53240054 -158.68695354 8.55196267 -142.76953125 3.62890625 C-141.7940332 3.32637939 -140.81853516 3.02385254 -139.81347656 2.7121582 C-134.40536219 1.09315379 -129.26850755 -0.04671884 -123.64453125 -0.55859375 C-123.64453125 1.75140625 -123.64453125 4.06140625 -123.64453125 6.44140625 C-112.47364873 6.40326491 -101.30309917 6.34378047 -90.13247871 6.25750351 C-84.94475212 6.21809668 -79.75719354 6.1858749 -74.56933594 6.17041016 C-69.5570472 6.15519881 -64.54522059 6.12067395 -59.53313828 6.07309723 C-57.62675889 6.05832952 -55.7203135 6.0503679 -53.81387711 6.0495224 C-37.76869638 6.04467692 -37.76869638 6.04467692 -23.51953125 -0.80859375 C-16.66956239 -4.97814001 -7.35325849 -1.77695857 0 0 Z " fill="#327EBA" transform="translate(192.64453125,123.55859375)"/>
<path d="M0 0 C13.36987816 -0.09288843 26.73967889 -0.16386073 40.10981464 -0.20724869 C46.31885023 -0.22807808 52.5276642 -0.25631105 58.73657227 -0.30175781 C64.73421072 -0.3453809 70.73163669 -0.36917204 76.72942162 -0.37950897 C79.01184621 -0.3868708 81.29425984 -0.40124644 83.5765934 -0.42292023 C86.78609516 -0.45217255 89.99473101 -0.45594684 93.2043457 -0.45410156 C94.13727448 -0.46848267 95.07020325 -0.48286377 96.03140259 -0.49768066 C106.99539153 -0.42995693 116.07992826 3.45118162 124 11 C130.62917174 17.98430594 134.15313807 26.43128495 134.4375 36.0625 C133.95890681 48.01189122 129.3568656 57.04326603 120.8125 65.3125 C116.037502 69.37529491 110.98706592 71.3311643 105 73 C104.37784481 73.17678 103.75568962 73.35356001 103.11468124 73.53569698 C100.90157368 74.02161065 98.94858705 74.12307038 96.68463135 74.12025452 C95.40163902 74.12231651 95.40163902 74.12231651 94.09272766 74.12442017 C93.16268417 74.12082489 92.23264069 74.11722961 91.27441406 74.11352539 C90.28871933 74.11367142 89.3030246 74.11381744 88.28746033 74.1139679 C85.03015948 74.11327136 81.77291585 74.10549103 78.515625 74.09765625 C76.25689729 74.09579115 73.99816918 74.09436768 71.73944092 74.09336853 C65.79480879 74.08955059 59.85020109 74.07972645 53.90557861 74.06866455 C47.83939952 74.05843491 41.77321648 74.05386758 35.70703125 74.04882812 C23.80467676 74.03810356 11.90234041 74.02103578 0 74 C0 70.04 0 66.08 0 62 C1.25787827 61.99635437 2.51575653 61.99270874 3.81175232 61.98895264 C15.68503196 61.95195894 27.55805329 61.89413808 39.43113613 61.81609726 C45.53474924 61.77664343 51.63821852 61.74444447 57.74194336 61.72900391 C63.63599954 61.71382385 69.52966025 61.6793535 75.42354012 61.63169098 C77.6684735 61.61689125 79.91346335 61.6089598 82.15844536 61.60811615 C85.31105234 61.60574059 88.46257166 61.57861214 91.61499023 61.54589844 C92.53640808 61.5509288 93.45782593 61.55595917 94.40716553 61.56114197 C102.61845003 61.42992213 110.08889973 58.91110027 116 53 C121.08412228 45.64094843 121.77963231 38.7793378 121 30 C119.25823496 23.42123142 114.59066485 18.68068683 109 15 C103.61030739 12.69574398 98.62175507 12.69436276 92.86376953 12.68115234 C91.8582756 12.67110672 90.85278168 12.6610611 89.81681824 12.65071106 C86.50548861 12.619911 83.19423972 12.60285257 79.8828125 12.5859375 C77.58209541 12.56722332 75.28138516 12.54764972 72.98068237 12.5272522 C66.93420448 12.47595155 60.88770435 12.43631461 54.84112549 12.39910889 C48.66746527 12.3590564 42.49389743 12.3079697 36.3203125 12.2578125 C24.21360658 12.16107761 12.10684848 12.0766649 0 12 C0 8.04 0 4.08 0 0 Z " fill="#F7FAFC" transform="translate(69,134)"/>
<path d="M0 0 C10.90987512 -0.06970476 21.81969669 -0.12291496 32.72974968 -0.15543652 C37.796476 -0.17105021 42.86304925 -0.19220958 47.9296875 -0.22631836 C52.82505917 -0.25906555 57.72028418 -0.27688528 62.61575699 -0.28463173 C64.47754345 -0.29014777 66.33932246 -0.30091888 68.20104599 -0.31719017 C83.68540348 -0.44706221 95.52814056 0.78270606 107.25 11.8125 C114.75597091 19.6275403 117.50737375 28.91521693 117.3125 39.62109375 C116.44672712 48.98226298 112.0372987 58.31802943 105.1171875 64.75 C96.74826226 71.31386294 89.24415134 74.16174624 78.65136719 74.11352539 C77.39228043 74.11374443 77.39228043 74.11374443 76.10775757 74.1139679 C73.33743696 74.11327207 70.56718385 74.10549507 67.796875 74.09765625 C65.87445106 74.0957909 63.95202664 74.09436755 62.02960205 74.09336853 C56.97272425 74.08955257 51.91587523 74.07973012 46.85900879 74.06866455 C41.69767649 74.05843065 36.53633953 74.05386667 31.375 74.04882812 C21.24998737 74.03810705 11.12499608 74.02104165 1 74 C1 70.37 1 66.74 1 63 C1.97781937 62.99413376 2.95563873 62.98826752 3.96308899 62.98222351 C13.21627484 62.92480006 22.4692301 62.85193738 31.72218037 62.76428509 C36.47826223 62.71971856 41.23426113 62.68043284 45.99047852 62.65356445 C50.58775632 62.62739381 55.1847125 62.58689596 59.78178978 62.53681374 C61.52825074 62.5202375 63.27476721 62.50866606 65.02129555 62.50238609 C83.1189793 62.69851116 83.1189793 62.69851116 98.33984375 53.9375 C103.39142777 48.0420043 104.68269024 42.79244098 104.37890625 35.03125 C103.44774678 27.58197426 100.93575237 22.00841899 95.07421875 17.25390625 C89.04235671 13.60752637 84.2492853 12.55484467 77.31079102 12.56762695 C76.47096176 12.5574353 75.63113251 12.54724365 74.76585388 12.53674316 C72.01180236 12.50673976 69.25809938 12.49736669 66.50390625 12.48828125 C64.58575801 12.47142517 62.66762076 12.45327368 60.74949646 12.43388367 C55.71737093 12.38647849 50.68528996 12.35660781 45.65301514 12.33044434 C40.51142584 12.30059093 35.36998986 12.25407702 30.22851562 12.20898438 C20.15242411 12.12305915 10.07630095 12.05566595 0 12 C0 8.04 0 4.08 0 0 Z " fill="#FAFCFD" transform="translate(69,56)"/>
<path d="M0 0 C28.71 0 57.42 0 87 0 C87 1.32 87 2.64 87 4 C58.29 4 29.58 4 0 4 C0 2.68 0 1.36 0 0 Z " fill="#D3EBF4" transform="translate(76,91)"/>
<path d="M0 0 C34.32 0 68.64 0 104 0 C104.495 1.485 104.495 1.485 105 3 C70.35 3 35.7 3 0 3 C0 2.01 0 1.02 0 0 Z " fill="#EDF4F9" transform="translate(76,169)"/>
<path d="M0 0 C33.33 0 66.66 0 101 0 C101 0.99 101 1.98 101 3 C67.67 3 34.34 3 0 3 C0 2.01 0 1.02 0 0 Z " fill="#FEFEFE" transform="translate(75,156)"/>
<path d="M0 0 C33.33 0 66.66 0 101 0 C100.67 0.99 100.34 1.98 100 3 C67 3 34 3 0 3 C0 2.01 0 1.02 0 0 Z " fill="#EDF4F9" transform="translate(75,183)"/>
<path d="M0 0 C27.39 0 54.78 0 83 0 C83 0.99 83 1.98 83 3 C55.61 3 28.22 3 0 3 C0 2.01 0 1.02 0 0 Z " fill="#FEFEFE" transform="translate(75,105)"/>
<path d="M0 0 C27.39 0 54.78 0 83 0 C83 0.99 83 1.98 83 3 C55.61 3 28.22 3 0 3 C0 2.01 0 1.02 0 0 Z " fill="#F0F8FB" transform="translate(75,78)"/>
</svg>
