<?xml version="1.0" encoding="UTF-8" standalone="no"?>
<svg
   width="14.7"
   height="21"
   viewBox="0 0 14.7 21"
   version="1.1"
   xml:space="preserve"
   id="SVGRoot"
   inkscape:version="1.4.2 (f4327f4, 2025-05-13)"
   sodipodi:docname="h2-zj.svg"
   xmlns:inkscape="http://www.inkscape.org/namespaces/inkscape"
   xmlns:sodipodi="http://sodipodi.sourceforge.net/DTD/sodipodi-0.dtd"
   xmlns="http://www.w3.org/2000/svg"
   xmlns:svg="http://www.w3.org/2000/svg"><defs
   id="defs48"><inkscape:path-effect
     effect="powerclip"
     message=""
     id="path-effect76"
     is_visible="true"
     lpeversion="1"
     inverse="true"
     flatten="false"
     hide_clip="false" /><clipPath
     clipPathUnits="userSpaceOnUse"
     id="clipPath76"><path
       id="lpe_path-effect76"
       style="fill:#eb5042;fill-opacity:1;stroke-opacity:0.112554"
       class="powerclip"
       d="M -2.9003906,-5 H 17.599609 V 26 H -2.9003906 Z M 2.0540739,18.731197 1.8584478,19.904954 2.1518869,21.421056 3.2278304,20.931991 12.568976,2.1029804 12.617882,0 h -1.12485 z" /></clipPath></defs>
<sodipodi:namedview
   pagecolor="#a9a9a9"
   bordercolor="#292929"
   borderopacity="1"
   inkscape:showpageshadow="2"
   inkscape:pageopacity="0.0"
   inkscape:pagecheckerboard="0"
   inkscape:deskcolor="#232323"
   id="namedview1"
   inkscape:zoom="32"
   inkscape:cx="10.4375"
   inkscape:cy="9.34375"
   inkscape:window-width="1600"
   inkscape:window-height="938"
   inkscape:window-x="2553"
   inkscape:window-y="-6"
   inkscape:window-maximized="1"
   inkscape:current-layer="SVGRoot"
   showguides="true" />
<style
   type="text/css"
   id="style1">
g.prefab path {
  vector-effect:non-scaling-stroke;
  -inkscape-stroke:hairline;
  fill: none;
  fill-opacity: 1;
  stroke-opacity: 1;
  stroke: #00349c;
}
</style>

<path
   id="rect1"
   clip-path="url(#clipPath76)"
   style="fill:#de9709;fill-opacity:1;stroke-width:1.18322;stroke-opacity:0.112554"
   d="m 2.0996094,0 v 21 h 0.9667968 c 0.00187,-0.01024 0.00706,-0.02018 0.011719,-0.0293 8.3e-4,-0.0016 0.00113,-0.0023 0.00195,-0.0039 l 0.021484,0.0098 0.00195,-0.002 c 0.00282,-0.0026 0.00873,-0.0074 0.011719,-0.0098 0.011025,-0.0092 0.025165,-0.01125 0.039063,-0.01172 h 0.00195 c 0.00408,-0.0066 0.0091,-0.01276 0.013672,-0.01953 0.00121,-0.0016 0.00264,-0.0042 0.00391,-0.0059 0.00218,-0.0056 0.00419,-0.01 0.00586,-0.01563 v -0.002 c 0.00205,-0.01 0.00314,-0.01914 0.00391,-0.0293 H 3.1875 3.203125 c 6.606e-4,-0.0026 0.00122,-0.0053 0.00195,-0.0078 l 0.039063,0.01172 c -0.00238,0.0081 -0.00635,0.01574 -0.00977,0.02344 v 0.002 h -0.00195 l -0.00195,0.002 v 0.002 l -0.00195,0.002 v 0.002 h -0.00195 v 0.002 c -2.656e-4,8.5e-4 -0.00163,0.0031 -0.00195,0.0039 v 0.002 c -0.00278,0.0054 -0.0056,0.01188 -0.00781,0.01758 -0.00325,0.0066 -0.00523,0.01273 -0.00781,0.01953 -0.00458,0.01273 -0.00895,0.02524 -0.015625,0.03711 H 12.599609 V 2.0664062 c -0.0021,0.00204 -0.004,0.00365 -0.0059,0.00586 -0.0036,0.00426 -0.0064,0.00737 -0.0098,0.011719 -5.08e-4,7.68e-4 -0.0035,0.00504 -0.0039,0.00586 -0.0024,0.00686 -0.0065,0.013051 -0.0098,0.019531 v 0.00195 0.00195 c -0.0037,0.00618 -0.01015,0.014679 -0.01562,0.019531 l -0.002,0.00195 h -0.002 l -0.002,0.00195 -0.0293,-0.033203 h 0.002 v -0.00195 h 0.002 l 0.002,-0.00195 0.002,-0.00195 0.002,-0.00195 0.002,-0.00195 v -0.00195 l 0.002,-0.00195 c 0.0037,-0.00731 0.0062,-0.016068 0.0098,-0.023438 0.0023,-0.00368 0.005,-0.00679 0.0078,-0.00977 l -0.01758,-0.03125 c -0.0051,0.01314 -0.0096,0.027557 -0.01367,0.041016 -0.0095,0.027815 -0.01826,0.055592 -0.03125,0.082031 l -0.03906,-0.017578 c 0.01238,-0.025159 0.0203,-0.05165 0.0293,-0.078125 0.0043,-0.014401 0.0082,-0.029218 0.01367,-0.042969 -0.125924,0.00531 -0.249136,0.022558 -0.373047,0.044922 -0.03771,0.011715 -0.07534,0.022257 -0.113282,0.033203 L 11.871094,1.6171875 c 0.05391,-0.015513 0.107339,-0.032551 0.162109,-0.044922 0.05967,-0.010763 0.119856,-0.019707 0.179688,-0.027344 l -0.08008,-0.2265625 c 0.03967,-0.013872 0.07947,-0.029097 0.119141,-0.042969 0.102816,-0.031358 0.207316,-0.059447 0.3125,-0.078125 -0.0024,-0.034463 -0.004,-0.069025 -0.0039,-0.1035156 1.29e-4,-0.023771 0.0018,-0.048495 0.002,-0.072266 -10e-5,-0.0243766 0.0052,-0.0470335 0.01172,-0.0703125 0.0017,-0.005537 0.0043,-0.0119828 0.0059,-0.0175781 -0.0023,-0.0232158 -0.0062,-0.0455145 -0.0098,-0.0683594 -0.0082,-0.0621475 -0.01618,-0.12502691 -0.02148,-0.1875 l 0.03125,-0.001953 v -0.001953 -0.001953 -0.001953 -0.001953 -0.001953 l -0.002,-0.001953 v -0.001953 L 12.599609,0.65625 V 0 H 12.154297 C 11.915366,0.03033912 11.674975,0.05072885 11.433594,0.04882812 11.34063,0.04809609 11.266246,0.02951877 11.208984,0 h -0.002 c -0.0059,0.0014247 -0.01189,0.00272736 -0.01758,0.00390625 -0.0086,6.0393e-4 -0.01679,8.175e-5 -0.02539,0 -0.0089,-1.3558e-4 -0.01844,-0.00142374 -0.02734,-0.00195312 C 11.125969,0.0012649 11.116119,0.00165302 11.105469,0 Z m 9.8124996,0.79101562 c 0.02117,4.8513e-4 0.04159,0.0101607 0.05469,0.0273438 0.0041,0.005399 0.0063,0.0117371 0.0098,0.0175781 0.01768,0.0419784 0.02082,0.0864172 0.01172,0.13085938 -0.0024,0.0114677 -0.0069,0.0218676 -0.0098,0.0332031 -0.0043,0.011988 -0.0071,0.025247 -0.01172,0.037109 -0.01146,0.029784 -0.02001,0.045089 -0.0332,0.074219 -0.01565,0.03455 -0.03164,0.070738 -0.04687,0.1054688 l -0.03906,-0.017578 c 0.01532,-0.034927 0.03113,-0.070727 0.04687,-0.1054688 0.0129,-0.028471 0.01999,-0.043316 0.03125,-0.072266 0.0042,-0.010703 0.0078,-0.020436 0.01172,-0.03125 0.0026,-0.009897 0.0056,-0.0212432 0.0078,-0.03125 0.0076,-0.0349566 0.007,-0.0699246 -0.0059,-0.10351563 l -0.002,-0.001953 v -0.001953 c -0.0013,-0.001895 -0.0046,-0.006131 -0.0059,-0.007813 l -0.002,-0.001953 v -0.001953 h -0.002 l -0.002,-0.001953 -0.002,-0.001953 h -0.002 -0.002 -0.002 l -0.002,-0.001953 h -0.002 -0.002 z m 0.628907,1.21679688 c -0.0012,0.00243 -0.0028,0.00534 -0.0039,0.00781 0.0038,-0.00245 0.0081,-0.00507 0.01172,-0.00781 -0.0026,1.962e-4 -0.0052,-1.354e-4 -0.0078,0 z" /><path
   id="path88"
   style="fill:#de9709;fill-opacity:1;stroke-opacity:0.112554"
   d="m 11.402344,-0.00390625 c -0.0035,8.89e-4 -0.0079,0.00212442 -0.01172,0.00390625 l -0.002,-0.00195313 c -0.0016,6.2894e-4 -0.0024,0.001315532 -0.0039,0.00195313 -0.0062,0.00216096 -0.0151,0.00447171 -0.02149,0.00585938 l -0.002,-0.00781251 c -0.0049,2.3155e-4 -0.0088,-2.5571e-4 -0.01367,0 -0.0077,8.4097e-4 -0.01572,0.001773275 -0.02344,0.00195313 -0.0042,2.1463717e-4 -0.0095,2.1639965e-4 -0.01367,0 -0.0064,1.7734184e-5 -0.01302,5.6813567e-5 -0.01953,0 -0.0098,-9.649631e-5 -0.02145,4.2295513e-4 -0.03125,0 -0.0013,-5.9597506e-5 -0.0026,8.6619161e-5 -0.0039,0 -10e-4,-6.662485e-5 -0.0029,-4.021284e-5 -0.0039,0 H 11.25 c -0.0095,-1.4391371e-4 -0.0198,-0.0013492 -0.0293,-0.00195313 h -0.002 -0.002 -0.002 c -0.0081,0.002206491 -0.01719,0.00416132 -0.02539,0.00585938 -0.0081,5.6507e-4 -0.01544,1.2345e-4 -0.02344,0 h -0.002 l -0.05469,0.02148438 0.08594,0.49414062 0.289063,-0.51757812 c -0.0068,5.111e-5 -0.01266,4.5084e-4 -0.01953,0 -0.0085,-6.3358e-4 -0.01709,-0.001990626 -0.02539,-0.00390626 h -0.002 v -0.00195312 h -0.002 -0.002 l -0.002,0.00195312 c -0.0048,2.4178e-4 -0.01283,1.199e-4 -0.01758,0 -9.53e-4,4.291e-5 -0.0049,-1.3684e-4 -0.0059,0 v -0.00195312 z" /></svg>
