<?xml version="1.0" encoding="UTF-8" standalone="no"?>
<svg
   width="14.7"
   height="21"
   viewBox="0 0 14.7 21"
   version="1.1"
   xml:space="preserve"
   id="SVGRoot"
   inkscape:version="1.4.2 (f4327f4, 2025-05-13)"
   sodipodi:docname="h3-yj.svg"
   xmlns:inkscape="http://www.inkscape.org/namespaces/inkscape"
   xmlns:sodipodi="http://sodipodi.sourceforge.net/DTD/sodipodi-0.dtd"
   xmlns="http://www.w3.org/2000/svg"
   xmlns:svg="http://www.w3.org/2000/svg"><defs
   id="defs48"><inkscape:path-effect
     effect="powerclip"
     message=""
     id="path-effect56"
     is_visible="true"
     lpeversion="1"
     inverse="true"
     flatten="false"
     hide_clip="false" /><clipPath
     clipPathUnits="userSpaceOnUse"
     id="clipPath54"><g
       id="g56"
       style="display:none"><circle
         style="fill:#8e58cc;fill-opacity:1;stroke-width:0.717423"
         id="circle54"
         cx="4.1999998"
         cy="4.1999998"
         r="2.0999999"
         d="M 6.2999997,4.1999998 A 2.0999999,2.0999999 0 0 1 4.1999998,6.2999997 2.0999999,2.0999999 0 0 1 2.0999999,4.1999998 2.0999999,2.0999999 0 0 1 4.1999998,2.0999999 2.0999999,2.0999999 0 0 1 6.2999997,4.1999998 Z" /><circle
         style="fill:#8e58cc;fill-opacity:1;stroke-width:0.717423"
         id="circle55"
         cx="10.5"
         cy="10.5"
         r="2.0999999"
         d="M 12.6,10.5 A 2.0999999,2.0999999 0 0 1 10.5,12.6 2.0999999,2.0999999 0 0 1 8.4000001,10.5 2.0999999,2.0999999 0 0 1 10.5,8.4000001 2.0999999,2.0999999 0 0 1 12.6,10.5 Z" /><circle
         style="fill:#8e58cc;fill-opacity:1;stroke-width:0.717423"
         id="circle56"
         cx="4.1999998"
         cy="16.800001"
         r="2.0999999"
         d="m 6.2999997,16.800001 a 2.0999999,2.0999999 0 0 1 -2.0999999,2.1 2.0999999,2.0999999 0 0 1 -2.0999999,-2.1 2.0999999,2.0999999 0 0 1 2.0999999,-2.1 2.0999999,2.0999999 0 0 1 2.0999999,2.1 z" /></g><path
       id="lpe_path-effect56"
       class="powerclip"
       d="M -5,-5 H 19.7 V 26 H -5 Z M 6.2999997,4.1999998 A 2.0999999,2.0999999 0 0 0 4.1999998,2.0999999 2.0999999,2.0999999 0 0 0 2.0999999,4.1999998 2.0999999,2.0999999 0 0 0 4.1999998,6.2999997 2.0999999,2.0999999 0 0 0 6.2999997,4.1999998 Z M 12.6,10.5 A 2.0999999,2.0999999 0 0 0 10.5,8.4000001 2.0999999,2.0999999 0 0 0 8.4000001,10.5 2.0999999,2.0999999 0 0 0 10.5,12.6 2.0999999,2.0999999 0 0 0 12.6,10.5 Z m -6.3000003,6.300001 a 2.0999999,2.0999999 0 0 0 -2.0999999,-2.1 2.0999999,2.0999999 0 0 0 -2.0999999,2.1 2.0999999,2.0999999 0 0 0 2.0999999,2.1 2.0999999,2.0999999 0 0 0 2.0999999,-2.1 z" /></clipPath></defs>
<sodipodi:namedview
   pagecolor="#a9a9a9"
   bordercolor="#292929"
   borderopacity="1"
   inkscape:showpageshadow="2"
   inkscape:pageopacity="0.0"
   inkscape:pagecheckerboard="0"
   inkscape:deskcolor="#232323"
   id="namedview1"
   inkscape:zoom="20.447171"
   inkscape:cx="9.4145053"
   inkscape:cy="10.563809"
   inkscape:window-width="1600"
   inkscape:window-height="938"
   inkscape:window-x="2553"
   inkscape:window-y="-6"
   inkscape:window-maximized="1"
   inkscape:current-layer="SVGRoot"
   showguides="true"><sodipodi:guide
     position="-14.386167,20.135447"
     orientation="1,0"
     id="guide2"
     inkscape:locked="false" /></sodipodi:namedview>
<style
   type="text/css"
   id="style1">
g.prefab path {
  vector-effect:non-scaling-stroke;
  -inkscape-stroke:hairline;
  fill: none;
  fill-opacity: 1;
  stroke-opacity: 1;
  stroke: #00349c;
}
</style>

<path
   style="fill:#4ca863;fill-opacity:1;stroke-width:1.4;stroke-opacity:0.112554"
   id="rect1"
   width="14.7"
   height="21"
   x="0"
   y="0"
   ry="3.5965419"
   clip-path="url(#clipPath54)"
   inkscape:path-effect="#path-effect56"
   sodipodi:type="rect"
   d="M 3.5965419,0 H 11.103458 C 13.095942,0 14.7,1.6040577 14.7,3.5965419 V 17.403458 C 14.7,19.395942 13.095942,21 11.103458,21 H 3.5965419 C 1.6040577,21 0,19.395942 0,17.403458 V 3.5965419 C 0,1.6040577 1.6040577,0 3.5965419,0 Z" /></svg>
